<?xml version="1.0" encoding="UTF-8"?>
<svg width="22px" height="20px" viewBox="0 0 22 20" version="1.1" xmlns="http://www.w3.org/2000/svg" xmlns:xlink="http://www.w3.org/1999/xlink">
    <!-- Generator: Sketch 49.3 (51167) - http://www.bohemiancoding.com/sketch -->
    <title>Shape</title>
    <desc>Created with Sketch.</desc>
    <defs></defs>
    <g id="Page-1" stroke="none" stroke-width="1" fill="none" fill-rule="evenodd">
        <g id="主界面-确认" transform="translate(-265.000000, -128.000000)" fill="#00A0E9" fill-rule="nonzero">
            <g id="内容" transform="translate(240.000000, 110.000000)">
                <g id="模块标题" transform="translate(0.000000, 13.000000)">
                    <path d="M46.7217144,12.8246918 L37.4255088,5.47604006 C36.625184,4.84131998 35.3715123,4.84131998 34.571212,5.47604006 L25.2789423,12.8246918 C24.9596143,13.0770104 24.9083732,13.5382783 25.1567313,13.8536703 C25.4050894,14.1690624 25.8584853,14.2242395 26.1778378,13.9758814 L26.4656291,13.7393312 L26.4656291,22.6215985 C26.4656291,23.8792307 27.7942312,24.8214709 28.9572287,24.8214709 L43.6230199,24.8214709 C44.7742094,24.8214709 45.531165,23.9383683 45.531165,22.6215985 L45.531165,13.770868 L45.7992519,13.9758814 C45.9332954,14.082324 46.0988756,14.1335896 46.2605198,14.1335896 C46.4773656,14.1335896 46.6941869,14.0389793 46.8400628,13.8536703 C47.0923813,13.5382783 47.0411402,13.0770104 46.7217877,12.8246918 L46.7217144,12.8246918 Z M35.2650451,23.3548893 L35.2650451,19.286305 C35.2650451,19.0852276 35.6316783,18.9827454 35.9983359,18.9827454 C36.3649935,18.9827454 36.7316267,19.0852276 36.7316267,19.286305 L36.7316267,23.3509533 L35.2650451,23.3548893 Z M44.0684705,22.6215985 C44.0684705,23.1065312 43.9344271,23.3548893 43.626907,23.3548893 L38.2139767,23.3548893 C38.2139767,23.3430569 38.1982083,23.335185 38.1982083,23.3233526 L38.1982083,19.2863295 C38.1982083,18.4347636 37.5122471,17.5161883 35.9983359,17.5161883 C34.4844248,17.5161883 33.7984636,18.4347636 33.7984636,19.2863295 L33.7984636,23.3233526 C33.7984636,23.335185 33.8181679,23.3430569 33.8181679,23.3548893 L28.9611157,23.3548893 C28.4998479,23.3548893 27.9360733,22.9567194 27.9360733,22.6215985 L27.9360733,12.5763093 L35.4700341,6.62720513 C35.742057,6.41431978 36.2309256,6.41431978 36.4990125,6.62720513 L44.0645101,12.611782 L44.0645101,22.6215741 L44.0684705,22.6215985 Z" id="Shape"></path>
                </g>
            </g>
        </g>
    </g>
</svg>