<?xml version="1.0" encoding="UTF-8"?>
<svg width="30px" height="30px" viewBox="0 0 30 30" version="1.1" xmlns="http://www.w3.org/2000/svg" xmlns:xlink="http://www.w3.org/1999/xlink">
    <!-- Generator: Sketch 49.3 (51167) - http://www.bohemiancoding.com/sketch -->
    <title>Group 5</title>
    <desc>Created with Sketch.</desc>
    <defs></defs>
    <g id="数据维护" stroke="none" stroke-width="1" fill="none" fill-rule="evenodd" opacity="0.5">
        <g id="数据维护/管廊数据" transform="translate(-705.000000, -349.000000)" fill="#FFFFFF">
            <g id="Group-5" transform="translate(705.000000, 349.000000)">
                <path d="M15,28 C22.1797017,28 28,22.1797017 28,15 C28,7.82029825 22.1797017,2 15,2 C7.82029825,2 2,7.82029825 2,15 C2,22.1797017 7.82029825,28 15,28 Z M15,30 C6.71572875,30 0,23.2842712 0,15 C0,6.71572875 6.71572875,0 15,0 C23.2842712,0 30,6.71572875 30,15 C30,23.2842712 23.2842712,30 15,30 Z" id="Oval-7" fill-rule="nonzero"></path>
                <path d="M15,12 C15.5522847,12 16,12.4477153 16,13 L16,22 C16,22.5522847 15.5522847,23 15,23 C14.4477153,23 14,22.5522847 14,22 L14,13 C14,12.4477153 14.4477153,12 15,12 Z M15,10 C14.4477153,10 14,9.55228475 14,9 C14,8.44771525 14.4477153,8 15,8 C15.5522847,8 16,8.44771525 16,9 C16,9.55228475 15.5522847,10 15,10 Z" id="Combined-Shape"></path>
            </g>
        </g>
    </g>
</svg>