<?xml version="1.0" encoding="UTF-8"?>
<svg width="22px" height="22px" viewBox="0 0 22 22" version="1.1" xmlns="http://www.w3.org/2000/svg" xmlns:xlink="http://www.w3.org/1999/xlink">
    <!-- Generator: Sketch 49.3 (51167) - http://www.bohemiancoding.com/sketch -->
    <title>Shape</title>
    <desc>Created with Sketch.</desc>
    <defs></defs>
    <g id="综合管廊智慧运维统一管理平台" stroke="none" stroke-width="1" fill="none" fill-rule="evenodd">
        <g id="系统管理/组织架构" transform="translate(-264.000000, -177.000000)" fill="#17D9E2" fill-rule="nonzero">
            <g id="内容" transform="translate(240.000000, 160.000000)">
                <g id="模块标题" transform="translate(0.000000, 16.000000)">
                    <g id="Group-14" transform="translate(24.000000, 1.000000)">
                        <path d="M19.800171,13.2000374 L17.0500908,13.2000374 L14.3000908,8.47001042 C14.9600502,8.14005825 15.4001122,7.37009859 15.4001122,6.6000855 L15.4001122,2.20006413 C15.4001122,0.989936676 14.4100128,0 13.2000695,0 L8.80006413,0 C7.59012077,0 6.60012825,0.989990114 6.60012825,2.20006413 L6.60012825,6.60005878 C6.60012825,7.37007187 7.04011008,8.03000294 7.70004275,8.4699837 L4.95004275,13.2000374 L2.20006947,13.2000374 C0.989939081,13.2000374 0,14.1900275 0,15.4000748 L0,19.8000695 C0,21.0100099 0.989992519,22 2.20006947,22 L6.60007481,22 C7.80999145,22 8.80001069,21.0100099 8.80001069,19.8000695 L8.80001069,18.3700184 L13.200016,18.3700184 L13.200016,19.8000695 C13.200016,21.0100099 14.1900086,22 15.4000588,22 L19.8000641,22 C21.0100075,22 22,21.0100099 22,19.8000695 L22,15.4000748 C22,14.1900008 21.0100075,13.2000374 19.8000641,13.2000374 L19.800171,13.2000374 Z M8.91995958,17 L8.91995958,15.6666307 C8.91995958,14.5555121 8.06655785,13.5555323 7,13.4443935 L9.45330328,9 L12.5466967,9 L15,13.4443935 C13.9333126,13.5555053 13.0800663,14.4443732 13.0800663,15.6666307 L13.0800663,17 L8.91998549,17 L8.91995958,17 Z" id="Shape"></path>
                    </g>
                </g>
            </g>
        </g>
    </g>
</svg>