<?xml version="1.0" encoding="UTF-8"?>
<svg width="18px" height="22px" viewBox="0 0 18 22" version="1.1" xmlns="http://www.w3.org/2000/svg" xmlns:xlink="http://www.w3.org/1999/xlink">
    <!-- Generator: Sketch 49.3 (51167) - http://www.bohemiancoding.com/sketch -->
    <title>Shape</title>
    <desc>Created with Sketch.</desc>
    <defs></defs>
    <g id="综合管廊智慧运维统一管理平台" stroke="none" stroke-width="1" fill="none" fill-rule="evenodd">
        <g id="系统管理/日志管理" transform="translate(-264.000000, -178.000000)" fill="#E3961A" fill-rule="nonzero">
            <g id="内容" transform="translate(240.000000, 160.000000)">
                <g id="Group">
                    <g id="日志" transform="translate(24.000000, 18.000000)">
                        <path d="M14.6284556,21.9426834 L2.43807594,21.9426834 C1.09156378,21.9426834 0,20.8511197 0,19.5046075 L0,3.65711392 C-9.13547715e-16,2.31060175 1.09156378,1.21903797 2.43807594,1.21903797 L4.87615187,1.21903797 L4.87615187,4.87615189 L12.1903797,4.87615189 L12.1903797,1.21903797 L14.6284556,1.21903797 C15.9749678,1.21903797 17.0665316,2.31060175 17.0665316,3.65711392 L17.0665316,19.5046075 C17.0665316,20.8511197 15.9749678,21.9426834 14.6284556,21.9426834 Z M12.7998987,8.53326578 L4.26663289,8.53326578 C3.93000485,8.53326578 3.6571139,8.80615673 3.6571139,9.14278477 C3.6571139,9.47941281 3.93000485,9.75230375 4.26663289,9.75230375 L12.7998987,9.75230375 C13.1365267,9.75230375 13.4094177,9.47941281 13.4094177,9.14278477 C13.4094177,8.80615673 13.1365267,8.53326578 12.7998987,8.53326578 Z M12.7998987,12.1903797 L4.26663289,12.1903797 C3.93000485,12.1903797 3.6571139,12.4632706 3.6571139,12.7998987 C3.6571139,13.1365267 3.93000485,13.4094177 4.26663289,13.4094177 L12.7998987,13.4094177 C13.1365267,13.4094177 13.4094177,13.1365267 13.4094177,12.7998987 C13.4094177,12.4632706 13.1365267,12.1903797 12.7998987,12.1903797 Z M12.7998987,15.8474936 L4.26663289,15.8474936 C3.93000486,15.8474936 3.65711392,16.1203846 3.65711392,16.4570126 C3.65711392,16.7936406 3.93000486,17.0665316 4.26663289,17.0665316 L12.7998987,17.0665316 C13.1365267,17.0665316 13.4094176,16.7936406 13.4094176,16.4570126 C13.4094176,16.1203846 13.1365267,15.8474936 12.7998987,15.8474936 Z M9.75230375,3.65711392 L7.31422781,3.65711392 C6.64097173,3.65711392 6.09518984,3.11133202 6.09518984,2.43807594 L6.09518984,1.21903797 C6.09518984,0.545781891 6.64097173,-4.12250452e-17 7.31422781,0 L9.75230375,0 C10.4255598,4.12250452e-17 10.9713417,0.545781891 10.9713417,1.21903797 L10.9713417,2.43807594 C10.9713417,3.11133202 10.4255598,3.65711392 9.75230375,3.65711392 Z" id="Shape"></path>
                    </g>
                </g>
            </g>
        </g>
    </g>
</svg>