<?xml version="1.0" encoding="UTF-8"?>
<svg width="42px" height="42px" viewBox="0 0 42 42" version="1.1" xmlns="http://www.w3.org/2000/svg" xmlns:xlink="http://www.w3.org/1999/xlink">
    <!-- Generator: Sketch 49.3 (51167) - http://www.bohemiancoding.com/sketch -->
    <title>微信</title>
    <desc>Created with Sketch.</desc>
    <defs>
        <linearGradient x1="29.937066%" y1="4.87738715%" x2="77.742513%" y2="90.5490451%" id="linearGradient-1">
            <stop stop-color="#FFFFFF" offset="0%"></stop>
            <stop stop-color="#E2E0E0" offset="100%"></stop>
        </linearGradient>
        <path d="M25.9762754,16.6563415 C26.2903103,16.6563415 26.6000136,16.6793157 26.9067006,16.7126541 C26.0711244,12.8618029 21.909832,10 17.1603859,10 C11.850124,10 7.5,13.5818983 7.5,18.1298384 C7.5,20.7546151 8.94757066,22.9104089 11.3656432,24.5824598 L10.3996014,27.4587661 L13.7763036,25.782608 C14.9853399,26.0189284 15.9543016,26.2626288 17.1603859,26.2626288 C17.4633829,26.2626288 17.7633959,26.2478688 18.061965,26.2241886 C17.8730371,25.5855941 17.763396,24.9159074 17.763396,24.2217063 C17.763428,20.0456539 21.3875528,16.6563415 25.9762754,16.6563415 Z M20.7830346,14.0641972 C21.51051,14.0641972 21.9920388,14.538314 21.9920388,15.2576713 C21.9920388,15.9740446 21.51051,16.4540974 20.7830346,16.4540974 C20.0584792,16.4540974 19.3324799,15.9740446 19.3324799,15.2576713 C19.3324799,14.538314 20.0585113,14.0641972 20.7830346,14.0641972 Z M14.0222501,16.4540653 C13.2976947,16.4540653 12.5672353,15.9740125 12.5672353,15.2576392 C12.5672353,14.5382819 13.2976947,14.0641651 14.0222501,14.0641651 C14.7460034,14.0641651 15.2283023,14.5382819 15.2283023,15.2576392 C15.2283023,15.9740446 14.7460034,16.4540653 14.0222501,16.4540653 Z M34.7935766,24.106867 C34.7935766,20.2849263 30.9286715,17.1697327 26.5881735,17.1697327 C21.9920388,17.1697327 18.3723742,20.2849263 18.3723742,24.106867 C18.3723742,27.9343588 21.9920388,31.0428784 26.5881735,31.0428784 C27.5497552,31.0428784 28.5202571,30.8042798 29.4862347,30.5643015 L32.1362638,32 L31.4094623,29.6115758 C33.3490222,28.1714172 34.7935766,26.2626287 34.7935766,24.106867 Z M23.9241224,22.9104089 C23.4433636,22.9104089 22.9581127,22.4370301 22.9581127,21.9539931 C22.9581127,21.4776624 23.4433637,20.9983475 23.9241224,20.9983475 C24.6545818,20.9983475 25.1331587,21.4776624 25.1331587,21.9539931 C25.1331587,22.4370301 24.6545818,22.9104089 23.9241224,22.9104089 Z M29.2373362,22.9104089 C28.7602996,22.9104089 28.2780006,22.4370301 28.2780006,21.9539931 C28.2780006,21.4776624 28.7602995,20.9983475 29.2373362,20.9983475 C29.9618917,20.9983475 30.4463725,21.4776624 30.4463725,21.9539931 C30.4463725,22.4370301 29.9618917,22.9104089 29.2373362,22.9104089 Z" id="path-2"></path>
        <filter x="-25.6%" y="-22.7%" width="151.3%" height="163.6%" filterUnits="objectBoundingBox" id="filter-3">
            <feOffset dx="0" dy="2" in="SourceAlpha" result="shadowOffsetOuter1"></feOffset>
            <feGaussianBlur stdDeviation="2" in="shadowOffsetOuter1" result="shadowBlurOuter1"></feGaussianBlur>
            <feColorMatrix values="0 0 0 0 0   0 0 0 0 0   0 0 0 0 0  0 0 0 0.1 0" type="matrix" in="shadowBlurOuter1"></feColorMatrix>
        </filter>
    </defs>
    <g id="Page-1" stroke="none" stroke-width="1" fill="none" fill-rule="evenodd">
        <g id="登录" transform="translate(-1348.000000, -27.000000)">
            <g id="TOP">
                <g id="Group-3" transform="translate(1281.000000, 27.000000)">
                    <g id="微信" transform="translate(67.000000, 0.000000)">
                        <g id="Group-2">
                            <circle id="Oval" stroke="#FFFFFF" stroke-width="2" opacity="0.7" cx="21" cy="21" r="20"></circle>
                            <g id="Shape" fill-rule="nonzero">
                                <use fill="black" fill-opacity="1" filter="url(#filter-3)" xlink:href="#path-2"></use>
                                <use fill="url(#linearGradient-1)" fill-rule="evenodd" xlink:href="#path-2"></use>
                            </g>
                        </g>
                    </g>
                </g>
            </g>
        </g>
    </g>
</svg>