<?xml version="1.0" standalone="no"?><!DOCTYPE svg PUBLIC "-//W3C//DTD SVG 1.1//EN" "http://www.w3.org/Graphics/SVG/1.1/DTD/svg11.dtd"><svg t="1566543292939" class="icon" viewBox="0 0 1024 1024" version="1.1" xmlns="http://www.w3.org/2000/svg" p-id="2070" xmlns:xlink="http://www.w3.org/1999/xlink" width="200" height="200"><defs><style type="text/css"></style></defs><path d="M368.19 869.765c-14.367 0-26.051-11.684-26.051-26.05s11.684-26.051 26.05-26.051h225.977c176.737 0 223.437-145.475 223.437-222.397 0-83.313-28.934-223.084-222.74-223.084H242.533L377.76 507.418a25.861 25.861 0 0 1 7.623 18.406 25.907 25.907 0 0 1-7.623 18.432 25.892 25.892 0 0 1-18.422 7.634 26.127 26.127 0 0 1-18.412-7.619l-178.99-179a26.092 26.092 0 0 1 0-36.838l166.57-166.574a25.882 25.882 0 0 1 18.421-7.63c6.958 0 13.502 2.71 18.422 7.63a26.086 26.086 0 0 1 0 36.838L243.963 320.082h350.894c100.854 0 175.939 32.824 223.186 97.556 42.675 58.496 51.645 128.886 51.656 177.634 0 110.34-73.38 274.493-275.533 274.493H368.189z" fill="#ffffff" p-id="2071"></path></svg>