<?xml version="1.0" encoding="UTF-8"?>
<svg width="15px" height="15px" viewBox="0 0 15 15" version="1.1" xmlns="http://www.w3.org/2000/svg" xmlns:xlink="http://www.w3.org/1999/xlink">
    <!-- Generator: Sketch 52.1 (67048) - http://www.bohemiancoding.com/sketch -->
    <title>Shape</title>
    <desc>Created with Sketch.</desc>
    <g id="Page-1" stroke="none" stroke-width="1" fill="none" fill-rule="evenodd">
        <g id="01-方案显示-默认方案" transform="translate(-1050.000000, -219.000000)" fill="#FFFFFF" fill-rule="nonzero">
            <g id="内容区域" transform="translate(265.000000, 198.000000)">
                <g id="标题" transform="translate(214.000000, 0.000000)">
                    <g id="按钮" transform="translate(559.000000, 15.000000)">
                        <g id="全屏">
                            <g id="Group-17" transform="translate(12.000000, 3.000000)">
                                <path d="M2.34038377,15.6591638 L12.654099,15.6591638 L12.654099,5.34347989 L2.34038377,5.34347989 L2.34038377,15.6591638 Z M3.74729294,6.75067031 L11.2472086,6.75067031 L11.2472086,14.2520859 L3.74729294,14.2520859 L3.74729294,6.75067031 Z M0.702195946,7.21875879 C1.09041033,7.21875879 1.4042818,6.90488732 1.4042818,6.51657919 L1.4042818,4.40719042 L3.51318307,4.40719042 C3.9014912,4.40719042 4.21536267,4.09331895 4.21536267,3.70491707 C4.21536267,3.31651519 3.9014912,3.00264372 3.51318307,3.00264372 L0.702195946,3.00264372 C0.313794065,3.00264372 1.63454263e-05,3.31651519 1.63454263e-05,3.70491707 L1.63454263e-05,6.51920416 C-0.00260862499,6.90488732 0.311262844,7.21875879 0.702195946,7.21875879 Z M3.51320182,16.5955471 L1.40430055,16.5955471 L1.40430055,14.4861583 C1.40430055,14.0976627 1.09042908,13.7837912 0.702214696,13.7837912 C0.313812815,13.7837912 3.50952726e-05,14.0976627 3.50952726e-05,14.4861583 L3.50952726e-05,17.2977267 C3.50952726e-05,17.6861285 0.313812815,18 0.702214696,18 L3.51593929,18 C3.90434117,18 4.21811889,17.6861285 4.21811889,17.2977267 C4.21538142,16.9094185 3.90150995,16.5955471 3.51320182,16.5955471 Z M14.2949305,3 L11.4812059,3 C11.0929915,3 10.7791201,3.31387147 10.7791201,3.7021796 C10.7791201,4.09058148 11.0929915,4.40445295 11.4812059,4.40445295 L13.5902947,4.40445295 L13.5902947,6.51391672 C13.5902947,6.90222485 13.9040724,7.21609632 14.2923806,7.21609632 C14.6805949,7.21609632 14.9944664,6.90222485 14.9944664,6.51391672 L14.9944664,3.70219835 C14.9971101,3.31389022 14.6833324,3 14.2949305,3 Z M14.2949305,13.7837912 C13.9067161,13.7837912 13.5928447,14.0976627 13.5928447,14.4861583 L13.5928447,16.5955283 L11.4839247,16.5955283 C11.0955228,16.5955283 10.7818388,16.9093998 10.7818388,17.2977079 C10.7818388,17.6861098 11.0955228,17.9999813 11.4839247,17.9999813 L14.297743,17.9999813 C14.6859574,17.9999813 14.9998288,17.6861098 14.9998288,17.2977079 L14.9998288,14.4861583 C14.9971101,14.0976627 14.6833324,13.7837912 14.2949305,13.7837912 Z" id="Shape"></path>
                            </g>
                        </g>
                    </g>
                </g>
            </g>
        </g>
    </g>
</svg>