<?xml version="1.0" encoding="UTF-8"?>
<svg width="15px" height="15px" viewBox="0 0 15 15" version="1.1" xmlns="http://www.w3.org/2000/svg" xmlns:xlink="http://www.w3.org/1999/xlink">
    <!-- Generator: Sketch 52.1 (67048) - http://www.bohemiancoding.com/sketch -->
    <title>Combined Shape</title>
    <desc>Created with Sketch.</desc>
    <g id="Page-1" stroke="none" stroke-width="1" fill="none" fill-rule="evenodd">
        <g id="02-方案显示-退出全屏" transform="translate(-1312.000000, -26.000000)" fill="#FFFFFF" fill-rule="nonzero">
            <g id="顶部">
                <g id="退出全屏" transform="translate(1300.000000, 17.000000)">
                    <g id="Group-17" transform="translate(12.000000, 6.000000)">
                        <path d="M12.1817896,15.1871191 L14.2911784,15.1871191 C14.679674,15.1871191 14.9935455,14.8732477 14.9935455,14.4850333 C14.9935455,14.0966314 14.679674,13.7828537 14.2911784,13.7828537 L11.47961,13.7828537 C11.0912082,13.7828537 10.7773367,14.0966314 10.7773367,14.4850333 L10.7773367,17.2987579 C10.7773367,17.6871598 11.0912082,18.0009375 11.47961,18.0009375 C11.8679182,17.9982 12.1817896,17.6843286 12.1817896,17.2960204 L12.1817896,15.1871191 Z M4.21576471,3.70245256 L4.21576471,6.51617715 C4.21576471,6.90457903 3.90187449,7.21835675 3.51356636,7.21571303 L0.701847992,7.21571303 C0.31353986,7.21571303 -0.000331608536,6.90184156 -0.000331608536,6.51362718 C-0.000331608708,6.12531905 0.31353986,5.81154133 0.701847992,5.81154133 L2.81131176,5.81154133 L2.81131176,3.70245256 C2.81131176,3.31423817 3.12518323,3.0003667 3.51358511,3.0003667 C3.90189324,3.0003667 4.21576471,3.31423817 4.21576471,3.70245256 Z M2.81272845,15.1871191 L0.703339683,15.1871191 C0.314844054,15.1871191 0.000972584754,14.8732477 0.000972584754,14.4850333 C0.000972584754,14.0966314 0.314844054,13.7828537 0.703339683,13.7828537 L3.51490805,13.7828537 C3.90330993,13.7828537 4.2171814,14.0966314 4.2171814,14.4850333 L4.2171814,17.2987579 C4.2171814,17.6871598 3.90330993,18.0009375 3.51490805,18.0009375 C3.12659992,17.9982 2.81272845,17.6843286 2.81272845,17.2960204 L2.81272845,15.1871191 Z M10.7787534,3.70245256 C10.7787534,3.31423817 11.0926248,3.0003667 11.480933,3.0003667 C11.8693349,3.0003667 12.1832063,3.31423817 12.1832063,3.70245256 L12.1832063,5.81154133 L14.2926701,5.81154133 C14.6809782,5.81154133 14.9948497,6.12531905 14.9948497,6.51362718 C14.9948497,6.90184156 14.6809782,7.21571303 14.2926701,7.21571303 L11.4809517,7.21571303 C11.0926436,7.21835675 10.7787534,6.90457903 10.7787534,6.51617715 L10.7787534,3.70245256 Z" id="Combined-Shape"></path>
                    </g>
                </g>
            </g>
        </g>
    </g>
</svg>