<?xml version="1.0" encoding="UTF-8"?>
<svg width="37px" height="44px" viewBox="0 0 37 44" version="1.1" xmlns="http://www.w3.org/2000/svg" xmlns:xlink="http://www.w3.org/1999/xlink">
    <!-- Generator: Sketch 48.2 (47327) - http://www.bohemiancoding.com/sketch -->
    <title>位置图标</title>
    <desc>Created with Sketch.</desc>
    <defs>
        <linearGradient x1="50%" y1="267.177734%" x2="50%" y2="1.56024205%" id="linearGradient-1">
            <stop stop-color="#43434B" offset="0%"></stop>
            <stop stop-color="#D8D8D8" stop-opacity="0" offset="100%"></stop>
        </linearGradient>
        <linearGradient x1="101.999998%" y1="100.999999%" x2="6.24500451e-15%" y2="0%" id="linearGradient-2">
            <stop stop-color="#087CFE" offset="0%"></stop>
            <stop stop-color="#2EBBFC" offset="100%"></stop>
        </linearGradient>
    </defs>
    <g id="主界面" stroke="none" stroke-width="1" fill="none" fill-rule="evenodd">
        <g id="主界面-确认" transform="translate(-69.000000, -28.000000)">
            <g id="bg">
                <g id="边栏">
                    <g id="位置与用户" transform="translate(0.000000, 30.000000)">
                        <g id="01-公司" transform="translate(70.000000, 0.000000)">
                            <g id="位置图标">
                                <polygon id="Polygon" stroke="#CFD0D2" stroke-width="2" fill="url(#linearGradient-1)" points="17.5 0 35 10 35 30 17.5 40 7.94919686e-14 30 6.83897383e-14 10"></polygon>
                                <g id="小电箱" transform="translate(8.000000, 10.000000)" fill="url(#linearGradient-2)" fill-rule="nonzero">
                                    <path d="M18.7491777,5 L18.7491777,18.75 C18.7491777,19.4397321 18.1889625,20 17.4992952,20 L2.5007048,20 C1.81103748,20 1.25082227,19.4397321 1.25082227,18.75 L1.25082227,5 L0.625881004,5 C0.219669181,5 -0.0794098537,4.61830357 0.0187952025,4.22321429 L0.840146581,0.946428571 C0.978526433,0.390625 1.47847945,0 2.05208625,0 L17.9479137,0 C18.5215206,0 19.0214736,0.390625 19.1620854,0.946428571 L19.9812048,4.22321429 C20.0794099,4.61830357 19.7803308,5 19.374119,5 L18.7491777,5 Z M6.5,7 C5.67157288,7 5,7.67157288 5,8.5 C5,9.32842712 5.67157288,10 6.5,10 L13.5,10 C14.3284271,10 15,9.32842712 15,8.5 C15,7.67157288 14.3284271,7 13.5,7 L6.5,7 Z M6.5,12 C5.67157288,12 5,12.6715729 5,13.5 C5,14.3284271 5.67157288,15 6.5,15 L9.5,15 C10.3284271,15 11,14.3284271 11,13.5 C11,12.6715729 10.3284271,12 9.5,12 L6.5,12 Z" id="Combined-Shape-Copy"></path>
                                </g>
                            </g>
                        </g>
                    </g>
                </g>
            </g>
        </g>
    </g>
</svg>