<?xml version="1.0" encoding="UTF-8"?>
<svg width="17px" height="22px" viewBox="0 0 17 22" version="1.1" xmlns="http://www.w3.org/2000/svg" xmlns:xlink="http://www.w3.org/1999/xlink">
    <!-- Generator: Sketch 49.3 (51167) - http://www.bohemiancoding.com/sketch -->
    <title>Shape</title>
    <desc>Created with Sketch.</desc>
    <defs></defs>
    <g id="登录/修改密码" stroke="none" stroke-width="1" fill="none" fill-rule="evenodd">
        <g id="修改密码" transform="translate(-266.000000, -156.000000)" fill="#12E2AC" fill-rule="nonzero">
            <g id="内容" transform="translate(240.000000, 140.000000)">
                <g id="模块标题" transform="translate(0.000000, 15.000000)">
                    <g id="修改密码" transform="translate(26.000000, 1.000000)">
                        <path d="M14.7429486,9.38249091 L4.82660255,9.38249091 L4.82884612,5.54602274 C4.82884612,3.50581627 6.25673073,1.88167474 8.19358971,1.88167474 C10.151282,1.88167474 11.5384615,3.43593288 11.5384615,5.5314637 L11.5384615,7.42252091 C11.5384615,7.9307931 11.9682692,8.36012294 12.4849358,8.36012294 C12.8464743,8.36012294 13.2772435,8.09870734 13.4801281,7.64252415 C13.4801281,7.64252415 13.5554487,7.45810968 13.5554487,7.38854983 L13.5557692,5.52078708 C13.5560897,2.42974162 11.2423076,0 8.28557688,0 C5.33942304,0 2.99839742,2.42230033 2.95576922,5.44831541 C2.94903846,5.58064089 2.94358974,8.08835424 2.94102563,9.38249091 L1.65064101,9.38249091 C0.696794861,9.38249091 0,10.0590009 0,11.0218386 L0,20.2163561 C0,21.1791938 0.696794861,22 1.65064101,22 L14.7426281,22 C15.6964743,22 16.6666666,21.1791938 16.6666666,20.2163561 L16.6666666,11.0218386 C16.6669871,10.0590009 15.6967948,9.38249091 14.7429486,9.38249091 Z M9.61858969,16.2795923 C9.51442302,16.3442992 9.61570508,16.4698304 9.61570508,16.4698305 L9.61570508,17.0441036 C9.61570508,17.450786 9.17051278,17.7940558 8.76378201,17.7940558 L8.19551278,17.7940558 C7.79423074,17.7940558 7.69262817,17.4640509 7.69262817,17.0441036 L7.69262817,16.418712 C7.69262817,16.418712 7.63493587,16.3135634 7.55480766,16.2362388 C7.14935894,15.8800276 6.90897434,15.4681687 6.90897432,15.0362505 C6.90897432,14.1750026 7.65256407,13.4473742 8.5487179,13.4473742 C9.40769225,13.4473742 10.1483974,14.16012 10.1483974,15.0362505 C10.1480769,15.5001985 10.1419871,15.9741761 9.61858969,16.2795923 Z" id="Shape"></path>
                    </g>
                </g>
            </g>
        </g>
    </g>
</svg>