<?xml version="1.0" encoding="UTF-8"?>
<svg width="42px" height="42px" viewBox="0 0 42 42" version="1.1" xmlns="http://www.w3.org/2000/svg" xmlns:xlink="http://www.w3.org/1999/xlink">
    <!-- Generator: Sketch 49.3 (51167) - http://www.bohemiancoding.com/sketch -->
    <title>下载</title>
    <desc>Created with Sketch.</desc>
    <defs>
        <linearGradient x1="29.937066%" y1="4.87738715%" x2="77.742513%" y2="90.5490451%" id="linearGradient-1">
            <stop stop-color="#FFFFFF" offset="0%"></stop>
            <stop stop-color="#E2E0E0" offset="100%"></stop>
        </linearGradient>
        <path d="M27.800197,9 L14.199803,9 C13.2612124,9 12.5,9.77555223 12.5,10.7312055 L12.5,30.6437945 C12.5,31.5994478 13.2612124,32.375 14.199803,32.375 L27.800197,32.375 C28.7387876,32.375 29.5,31.599572 29.5,30.6437945 L29.5,10.7312055 C29.4998769,9.77555223 28.7387876,9 27.800197,9 Z M21.4257816,31.5100183 C20.7210693,31.5100183 20.15016,30.9279815 20.15016,30.2111795 C20.15016,29.4943774 20.7210693,28.9125891 21.4257816,28.9125891 C22.1302478,28.9125891 22.7011571,29.4945017 22.7011571,30.2111795 C22.7011571,30.9281057 22.1287707,31.5100183 21.4257816,31.5100183 Z M27.800197,25.4500539 C27.800197,26.4058314 27.0389845,27.1812594 26.100517,27.1812594 L15.899483,27.1812594 C14.9608924,27.1812594 14.199803,26.4058314 14.199803,25.4500539 L14.199803,12.4624109 C14.199803,11.5066335 14.9610155,10.7312055 15.899483,10.7312055 L26.1006401,10.7312055 C27.0391076,10.7312055 27.80032,11.5066335 27.80032,12.4624109 L27.80032,25.4500539 L27.800197,25.4500539 Z" id="path-2"></path>
        <filter x="-23.5%" y="-8.6%" width="147.1%" height="134.2%" filterUnits="objectBoundingBox" id="filter-3">
            <feOffset dx="0" dy="2" in="SourceAlpha" result="shadowOffsetOuter1"></feOffset>
            <feGaussianBlur stdDeviation="1" in="shadowOffsetOuter1" result="shadowBlurOuter1"></feGaussianBlur>
            <feColorMatrix values="0 0 0 0 0   0 0 0 0 0   0 0 0 0 0  0 0 0 0.2 0" type="matrix" in="shadowBlurOuter1"></feColorMatrix>
        </filter>
    </defs>
    <g id="Page-1" stroke="none" stroke-width="1" fill="none" fill-rule="evenodd">
        <g id="登录" transform="translate(-1281.000000, -27.000000)">
            <g id="TOP">
                <g id="Group-3" transform="translate(1281.000000, 27.000000)">
                    <g id="下载">
                        <circle id="Oval" stroke="#FFFFFF" stroke-width="2" opacity="0.7" cx="21" cy="21" r="20"></circle>
                        <g id="Shape" fill-rule="nonzero">
                            <use fill="black" fill-opacity="1" filter="url(#filter-3)" xlink:href="#path-2"></use>
                            <use fill="url(#linearGradient-1)" fill-rule="evenodd" xlink:href="#path-2"></use>
                        </g>
                    </g>
                </g>
            </g>
        </g>
    </g>
</svg>