<?xml version="1.0" encoding="UTF-8"?>
<svg width="22px" height="22px" viewBox="0 0 22 22" version="1.1" xmlns="http://www.w3.org/2000/svg" xmlns:xlink="http://www.w3.org/1999/xlink">
    <!-- Generator: Sketch 49.3 (51167) - http://www.bohemiancoding.com/sketch -->
    <title>Shape</title>
    <desc>Created with Sketch.</desc>
    <defs></defs>
    <g id="系统管理/权限管理" stroke="none" stroke-width="1" fill="none" fill-rule="evenodd">
        <g id="系统管理/权限管理/修改" transform="translate(-264.000000, -176.000000)" fill="#12C8E2" fill-rule="nonzero">
            <g id="内容" transform="translate(240.000000, 160.000000)">
                <g id="Group">
                    <path d="M43.6738867,29.1108828 C42.5196172,27.1116758 43.2137773,24.5496641 45.2240273,23.3855547 L43.0621406,19.641 C42.4444648,20.0030977 41.7263281,20.2107227 40.9599805,20.2107227 C38.6496367,20.2107227 36.7768008,18.3255547 36.7768008,16 L32.4528984,16 C32.4586133,16.717793 32.2794336,17.4455117 31.895207,18.1108828 C30.7409805,20.1101328 28.1750586,20.7900273 26.1618437,19.6310742 L24,23.3756289 C24.6224023,23.7295195 25.1612305,24.2476367 25.5444258,24.9112891 C26.6968047,26.9073594 26.0065977,29.4642578 24.0038242,30.6309453 L26.1657109,34.3755 C26.7812383,34.0167969 27.4959375,33.8114492 28.2582891,33.8114492 C30.5613281,33.8114492 32.4293516,35.6847148 32.4412969,38 L36.7651133,38 C36.7632656,37.2894258 36.942832,36.5697852 37.3229766,35.911332 C38.4753125,33.9153047 41.0349609,33.2345078 43.0467148,34.3856836 L45.2086016,30.6411719 C44.5902812,30.2874102 44.0550625,29.7710977 43.6738867,29.1108828 Z M34.6119922,31.4544414 C32.1518594,31.4544414 30.1575078,29.4601758 30.1575078,27 C30.1575078,24.5398672 32.1518164,22.5455586 34.6119922,22.5455586 C37.072168,22.5455586 39.0663906,24.5398672 39.0663906,27 C39.0663477,29.4601758 37.072125,31.4544414 34.6119922,31.4544414 Z" id="Shape"></path>
                </g>
            </g>
        </g>
    </g>
</svg>