<?xml version="1.0" encoding="UTF-8"?>
<svg width="20px" height="22px" viewBox="0 0 20 22" version="1.1" xmlns="http://www.w3.org/2000/svg" xmlns:xlink="http://www.w3.org/1999/xlink">
    <!-- Generator: Sketch 49.3 (51167) - http://www.bohemiancoding.com/sketch -->
    <title>Combined Shape</title>
    <desc>Created with Sketch.</desc>
    <defs></defs>
    <g id="上海轨道交通18号线维修支持系统" stroke="none" stroke-width="1" fill="none" fill-rule="evenodd">
        <g id="系统管理/角色管理" transform="translate(-264.000000, -178.000000)" fill="#E3491D" fill-rule="nonzero">
            <g id="内容" transform="translate(238.000000, 158.000000)">
                <g id="Group">
                    <path d="M41.5335017,38.7998316 L40.2203884,37.4867184 C40.0251263,37.2914562 39.7085438,37.2914562 39.5132816,37.4867184 L39.3870551,37.6129449 C39.1917929,37.8082071 39.1917929,38.1247896 39.3870551,38.3200517 L41.1799483,40.1129449 C41.2775794,40.210576 41.4055405,40.2593915 41.5335017,40.2593915 C41.6614628,40.2593915 41.789424,40.210576 41.8870551,40.1129449 L44.5132816,37.4867184 C44.7085438,37.2914562 44.7085438,36.9748737 44.5132816,36.7796116 L44.3870551,36.653385 C44.1917929,36.4581229 43.8752104,36.4581229 43.6799483,36.653385 L41.5335017,38.7998316 Z M35.5375327,20.1465317 C35.918826,20.237006 36.2900375,20.3656535 36.645547,20.5305266 C36.9716057,20.6800029 37.2806882,20.8640265 37.5674894,21.079439 C37.8023552,21.2559166 38.012847,21.4626842 38.1934887,21.6943626 C38.5466916,22.1584839 38.8131675,22.6825807 38.9800858,23.2414181 C39.1348314,23.7699452 39.2507703,24.3090681 39.3269771,24.854485 C39.4019401,25.4435969 39.4386407,26.0369483 39.4368482,26.6308078 C39.5330561,26.7078279 39.6110762,26.8051356 39.6653402,26.9157859 C39.7237753,27.0417298 39.7663724,27.1744319 39.7921571,27.3108566 C39.8285962,27.5062321 39.8343555,27.7059272 39.8091029,27.9030749 C39.7887508,28.1558631 39.7288014,28.403883 39.6314485,28.6380592 C39.5554116,28.7972465 39.4524014,28.9420753 39.3269771,29.0661355 C39.217763,29.1756309 39.0845473,29.2581844 38.9378873,29.3072538 C38.8741079,29.5423809 38.806463,29.7764424 38.7349803,30.0093432 C38.6587794,30.199624 38.5825785,30.385696 38.4980708,30.5692205 C38.4220992,30.7284742 38.3190397,30.8733197 38.1934887,30.9972968 C37.9754777,31.1795881 37.7611923,31.3662893 37.5507651,31.5572849 C37.3609408,31.7754078 37.245392,32.048241 37.2208196,32.3363505 C37.1812892,32.557003 37.1670941,32.781449 37.1785103,33.0053236 C37.1982251,33.2395749 37.2582555,33.4683991 37.3561648,33.6820496 C37.4715786,33.925836 37.6323424,34.1454251 37.829873,34.3290928 C37.8509169,34.3477 37.9102827,34.3612124 37.8938906,34.3840283 C35.9128886,37.1510737 36.9188956,40.2707697 38.1294711,41.7626682 C38.1294711,41.7626682 37.6946386,41.8050882 37.4746749,41.8242492 C36.9058077,41.8737222 36.3361846,41.9140799 35.7660247,41.9453067 C35.2246438,41.9748789 34.7510464,41.9892773 34.3534283,41.9892773 C33.9558102,41.9892773 33.4906302,41.9748789 32.9577777,41.9453067 C32.4248144,41.9156238 31.8834335,41.875862 31.3168001,41.8242492 C30.7549339,41.7732048 30.1937866,41.714535 29.6335132,41.6482561 C29.0751865,41.5822449 28.5676974,41.5129109 28.1110457,41.4402542 C27.6542833,41.3674868 27.2736111,41.2939441 26.9521939,41.2204013 C26.7416174,41.189213 26.5398922,41.1143253 26.3599755,41.0005484 C26.1488199,40.6818715 26.0369609,40.3077104 26.0385583,39.925429 C25.9652663,39.1490923 25.996558,38.3664292 26.1315943,37.5984217 C26.1667733,37.1219107 26.3850414,36.6775155 26.7406478,36.3583849 C27.0908186,36.067001 27.488567,35.8381159 27.9164455,35.6817696 C28.3741957,35.5095276 28.8399483,35.3593528 29.312096,35.2317634 C29.7660199,35.1120494 30.1974171,34.9192075 30.5893472,34.6608104 C30.8343103,34.5101746 31.0564839,34.3252972 31.2491275,34.1117873 C31.3888209,33.9565984 31.500432,33.7782755 31.5789622,33.5848049 C31.6532641,33.4113934 31.6907166,33.2244328 31.688944,33.0357818 C31.688944,32.8457226 31.6804157,32.6334011 31.6634699,32.3988175 C31.6542822,32.1006047 31.5370212,31.8158955 31.3335244,31.5977112 C31.1271634,31.3881668 30.9127614,31.1866962 30.6908008,30.9937526 C30.5683618,30.8708228 30.4707094,30.725491 30.4031645,30.5656763 C30.325644,30.379622 30.2495148,30.192991 30.1747833,30.005799 C30.1031985,29.7729286 30.0355532,29.5388654 29.9718762,29.3037096 C29.8676197,29.2699508 29.7702438,29.2178119 29.6843507,29.1497572 C29.5821975,29.058581 29.4913214,28.9555087 29.4136603,28.8427384 C29.3000426,28.6677398 29.2170792,28.4746581 29.1683333,28.2717854 C29.0870461,28.0560592 29.0552516,27.8248298 29.0752973,27.5951701 C29.089585,27.415522 29.1265778,27.2384214 29.1852791,27.0680769 C29.2463355,26.8990537 29.3381071,26.7427715 29.4559695,26.6071058 C29.4418987,26.0497677 29.470149,25.4921655 29.5404772,24.9391034 C29.6010711,24.4276677 29.7000723,23.9215179 29.8366418,23.4249427 C29.9703938,22.9086732 30.1905895,22.4187752 30.4878937,21.9760179 C30.7241983,21.5968882 31.0214382,21.2593452 31.3676376,20.9769886 C31.6693613,20.7328089 32.0021336,20.5297192 32.3572525,20.37303 C32.6814237,20.2310648 33.0225711,20.1315573 33.3722309,20.0769762 C33.6969235,20.0266004 34.0249629,20.0008682 34.353539,20 C34.7523457,20.0038102 35.149918,20.0517776 35.5375327,20.1465317 Z M42,42 C39.790861,42 38,40.209139 38,38 C38,35.790861 39.790861,34 42,34 C44.209139,34 46,35.790861 46,38 C46,40.209139 44.209139,42 42,42 Z" id="Combined-Shape"></path>
                </g>
            </g>
        </g>
    </g>
</svg>