<?xml version="1.0" encoding="UTF-8"?>
<svg width="21px" height="22px" viewBox="0 0 21 22" version="1.1" xmlns="http://www.w3.org/2000/svg" xmlns:xlink="http://www.w3.org/1999/xlink">
    <!-- Generator: Sketch 49.3 (51167) - http://www.bohemiancoding.com/sketch -->
    <title>Combined Shape</title>
    <desc>Created with Sketch.</desc>
    <defs></defs>
    <g id="上海轨道交通18号线维修支持系统" stroke="none" stroke-width="1" fill="none" fill-rule="evenodd">
        <g id="系统管理/用户管理" transform="translate(-264.000000, -178.000000)" fill="#E3B71D" fill-rule="nonzero">
            <g id="内容" transform="translate(240.000000, 160.000000)">
                <g id="用户管理">
                    <g id="用户设置" transform="translate(24.000000, 18.000000)">
                        <path d="M18.9130129,16.6740427 C18.8382086,16.3901631 18.725752,16.1175704 18.5786372,15.863522 L19.2169305,14.902704 L19.2136078,14.9010426 L18.3068392,13.9943847 L18.3051778,13.9927234 L17.3443597,14.6310167 C17.0912447,14.4844719 16.8198637,14.3720389 16.5372725,14.2966409 L16.3075622,13.167029 L15.0226688,13.167029 L14.7929585,14.2949796 C14.5103224,14.3703486 14.2389011,14.4827829 13.9857605,14.6293554 L13.0249424,13.9927234 L12.1148511,14.9028147 L12.7530337,15.8636328 C12.6047444,16.1172847 12.4917282,16.3899692 12.4171073,16.6741535 L11.2874954,16.9038638 L11.2874954,18.1887572 L12.4171073,18.4184675 C12.4925334,18.7021203 12.6049177,18.9746281 12.7513723,19.2289882 L12.1131898,20.1898063 L13.0232811,21.0998976 L13.9857605,20.461715 C14.2389562,20.608149 14.5103637,20.7205403 14.7929585,20.79598 L15.0226688,21.925592 L16.3075622,21.925592 L16.5372725,20.79598 C16.8199408,20.7208612 17.0913531,20.6084525 17.3443597,20.461715 L18.3051778,21.0998976 L18.3068392,21.0982362 L19.2136078,20.1915784 L19.2152691,20.189917 L18.5769758,19.2290989 C18.7240429,18.9750271 18.8364968,18.7024409 18.9113516,18.4185782 L20.0409635,18.1885357 L20.0409635,16.9036422 L18.9130129,16.6740427 Z M15.6676075,19.0649569 C14.827404,19.0640708 14.1470229,18.3821392 14.147909,17.5418248 C14.1489058,16.7016212 14.8307267,16.0212402 15.6709303,16.0221263 C16.5112446,16.0231231 17.1916256,16.704944 17.1907396,17.5452583 C17.1898535,18.3854619 16.5079219,19.0659537 15.6676075,19.0649569 Z M8.35331751,0.00365498525 C8.75234573,0.00381015281 9.14991796,0.0517776217 9.53753273,0.146531681 C9.91882604,0.237005985 10.2900375,0.365653536 10.645547,0.530526647 C10.9716057,0.680002891 11.2806882,0.864026537 11.5674894,1.07943898 C11.8023552,1.25591656 12.012847,1.46268415 12.1934887,1.69436256 C12.5466916,2.15848392 12.8131675,2.68258073 12.9800858,3.24141813 C13.1348314,3.76994516 13.2507703,4.3090681 13.3269771,4.85448496 C13.4019401,5.44359691 13.4386407,6.03694826 13.4368482,6.63080779 C13.5330561,6.70782791 13.6110762,6.80513564 13.6653402,6.91578588 C13.7237753,7.04172979 13.7663724,7.17443191 13.7921571,7.31085656 C13.8285962,7.50623213 13.8343555,7.70592724 13.8091029,7.90307493 C13.7887508,8.15586314 13.7288014,8.40388304 13.6314485,8.63805923 C13.5554116,8.79724652 13.4524014,8.94207532 13.3269771,9.06613554 C13.217763,9.17563086 13.0845473,9.25818438 12.9378873,9.30725381 C12.8741079,9.54238091 12.806463,9.77644242 12.7349803,10.0093432 C12.6587794,10.199624 12.5825785,10.385696 12.4980708,10.5692205 C12.4220992,10.7284742 12.3190397,10.8733197 12.1934887,10.9972968 C11.9754777,11.1795881 11.7611923,11.3662893 11.5507651,11.5572849 C11.3609408,11.7754078 11.245392,12.048241 11.2208196,12.3363505 C11.1812892,12.557003 11.1670941,12.781449 11.1785103,13.0053236 C11.1982251,13.2395749 11.2582555,13.4683991 11.3561648,13.6820496 C11.4715786,13.925836 11.6323424,14.1454251 11.829873,14.3290928 C11.8509169,14.3477 11.9102827,14.3612124 11.8938906,14.3840283 C9.91288864,17.1510737 10.9188956,20.2707697 12.1294711,21.7626682 C12.1294711,21.7626682 11.6946386,21.8050882 11.4746749,21.8242492 C10.9058077,21.8737222 10.3361846,21.9140799 9.76602469,21.9453067 C9.22464384,21.9748789 8.75104636,21.9892773 8.35342826,21.9892773 C7.95581017,21.9892773 7.49063023,21.9748789 6.95777768,21.9453067 C6.42481438,21.9156238 5.88343354,21.875862 5.31680006,21.8242492 C4.7549339,21.7732048 4.19378658,21.714535 3.63351322,21.6482561 C3.07518653,21.5822449 2.56769737,21.5129109 2.11104573,21.4402542 C1.65428333,21.3674868 1.27361108,21.2939441 0.952193889,21.2204013 C0.741617367,21.189213 0.539892186,21.1143253 0.359975521,21.0005484 C0.148819925,20.6818715 0.036960901,20.3077104 0.0385583337,19.925429 C-0.0347336655,19.1490923 -0.00344203952,18.3664292 0.131594322,17.5984217 C0.166773302,17.1219107 0.385041366,16.6775155 0.740647773,16.3583849 C1.09081862,16.067001 1.48856696,15.8381159 1.91644545,15.6817696 C2.37419569,15.5095276 2.83994828,15.3593528 3.31209603,15.2317634 C3.7660199,15.1120494 4.19741711,14.9192075 4.58934724,14.6608104 C4.83431031,14.5101746 5.05648391,14.3252972 5.24912746,14.1117873 C5.38882093,13.9565984 5.500432,13.7782755 5.57896219,13.5848049 C5.65326413,13.4113934 5.6907166,13.2244328 5.68894402,13.0357818 C5.68894402,12.8457226 5.68041572,12.6334011 5.66346988,12.3988175 C5.65428218,12.1006047 5.53702122,11.8158955 5.33352439,11.5977112 C5.12716338,11.3881668 4.91276138,11.1866962 4.69080077,10.9937526 C4.56836183,10.8708228 4.47070936,10.725491 4.40316451,10.5656763 C4.32564396,10.379622 4.24951477,10.192991 4.17478331,10.005799 C4.10319853,9.7729286 4.03555319,9.53886539 3.97187625,9.30370958 C3.86761974,9.26995079 3.77024385,9.21781193 3.68435074,9.14975717 C3.58219751,9.05858099 3.49132137,8.95550871 3.41366032,8.84273841 C3.30004256,8.66773981 3.21707924,8.47465811 3.16833328,8.27178541 C3.08704608,8.05605923 3.05525156,7.82482977 3.07529729,7.59517011 C3.08958496,7.41552205 3.12657784,7.2384214 3.18527912,7.06807693 C3.24633548,6.89905367 3.33810713,6.74277151 3.45596954,6.60710576 C3.44189868,6.0497677 3.47014905,5.49216547 3.54047723,4.9391034 C3.60107112,4.42766767 3.70007226,3.92151785 3.83664179,3.42494269 C3.97039376,2.90867318 4.19058946,2.41877519 4.48789371,1.97601794 C4.72419832,1.59688819 5.02143822,1.2593452 5.36763759,0.976988633 C5.66936134,0.732808917 6.00213358,0.529719151 6.35725253,0.37303001 C6.68142372,0.231064815 7.02257106,0.131557301 7.37223086,0.0769762045 C7.69692352,0.0266004101 8.02496287,0.000868203489 8.35353902,1.77635684e-15 L8.35353902,0.00365498525 L8.35331751,0.00365498525 Z" id="Combined-Shape"></path>
                    </g>
                </g>
            </g>
        </g>
    </g>
</svg>