<?xml version="1.0" encoding="UTF-8"?>
<svg width="18px" height="22px" viewBox="0 0 18 22" version="1.1" xmlns="http://www.w3.org/2000/svg" xmlns:xlink="http://www.w3.org/1999/xlink">
    <!-- Generator: Sketch 49.3 (51167) - http://www.bohemiancoding.com/sketch -->
    <title>Shape</title>
    <desc>Created with Sketch.</desc>
    <defs></defs>
    <g id="系统管理/代码定义" stroke="none" stroke-width="1" fill="none" fill-rule="evenodd">
        <g transform="translate(-264.000000, -178.000000)" fill="#E31AC4" fill-rule="nonzero" id="内容">
            <g transform="translate(240.000000, 160.000000)">
                <g id="代码定义" transform="translate(0.000000, 16.000000)">
                    <path d="M39.277081,3.70581528 C39.7286203,4.10718358 40.0881794,4.44583808 40.3557583,4.72177879 C40.6233371,4.9977195 40.8282022,5.23185101 40.9703535,5.42417332 C41.1125048,5.61649563 41.2003041,5.7795515 41.2337514,5.91334094 C41.2671988,6.04713037 41.2839225,6.16419612 41.2839225,6.2645382 L41.2839225,6.6659065 L37.5963512,6.6659065 C37.4123907,6.6659065 37.2576967,6.6031927 37.1322691,6.47776511 C37.0068415,6.35233751 36.9023185,6.20600532 36.8187001,6.03876853 C36.7350817,5.87153174 36.6723679,5.70011403 36.6305587,5.52451539 C36.5887495,5.34891676 36.5678449,5.20258457 36.5678449,5.08551881 L36.5678449,2 L36.618016,2 C36.7685291,2 36.9106803,2.01672368 37.0444698,2.05017104 C37.1782592,2.0836184 37.3413151,2.16305587 37.5336374,2.28848347 C37.7259597,2.41391106 37.9600912,2.58950969 38.2360319,2.81527936 C38.5119726,3.04104903 38.858989,3.33789434 39.277081,3.70581528 Z M34.9874572,5.13568985 C34.9874572,5.45343976 35.0376283,5.79627518 35.1379704,6.16419612 C35.2383124,6.53211707 35.3971874,6.87077157 35.6145952,7.18015964 C35.832003,7.4895477 36.1079437,7.74876473 36.4424173,7.95781072 C36.7768909,8.16685671 37.1698974,8.2713797 37.6214367,8.2713797 L41.2839225,8.2713797 L41.2839225,20.8392246 C41.2839225,21.3242113 41.1877613,21.759027 40.995439,22.1436716 C40.8031167,22.5283162 40.5480806,22.8586089 40.2303307,23.1345496 C39.9125808,23.4104903 39.5613835,23.6237172 39.1767389,23.7742303 C38.7920943,23.9247434 38.4158115,24 38.0478905,24 L27.2360319,24 C26.918282,24 26.5712657,23.9080198 26.1949829,23.7240593 C25.8187001,23.5400988 25.4675029,23.2976055 25.1413911,22.9965792 C24.8152794,22.695553 24.5435196,22.3485367 24.3261117,21.9555302 C24.1087039,21.5625238 24,21.1569745 24,20.7388826 L24,5.23603193 C24,4.88483466 24.0836184,4.51691372 24.2508552,4.1322691 C24.418092,3.74762448 24.6396807,3.40060813 24.9156214,3.09122007 C25.1915621,2.781832 25.5051311,2.52261498 25.8563284,2.31356899 C26.2075257,2.104523 26.5754466,2 26.9600912,2 L34.9874572,2 L34.9874572,5.13568985 Z M32.9806157,16.4492588 C33.1812999,16.2485747 33.2900038,15.9809958 33.3067275,15.6465222 C33.3234512,15.3120487 33.2314709,15.0528316 33.0307868,14.8688712 L28.9167617,10.7297605 C28.7160775,10.5290764 28.4694033,10.4287343 28.1767389,10.4287343 C27.8840745,10.4287343 27.6374002,10.5290764 27.4367161,10.7297605 C27.2360319,10.9471684 27.1356899,11.2022045 27.1356899,11.4948689 C27.1356899,11.7875333 27.2360319,12.0342075 27.4367161,12.2348917 L30.7981756,15.6465222 L27.4367161,19.0330673 C27.2360319,19.2337514 27.1356899,19.4804257 27.1356899,19.7730901 C27.1356899,20.0657545 27.2360319,20.3207906 27.4367161,20.5381984 C27.6374002,20.7388826 27.8840745,20.8392246 28.1767389,20.8392246 C28.4694033,20.8392246 28.7160775,20.7388826 28.9167617,20.5381984 L32.9806157,16.4492588 Z M38.1231471,19.2337514 L33.4070696,19.2337514 L33.4070696,20.8141391 L38.1231471,20.8141391 L38.1231471,19.2337514 Z" id="Shape"></path>
                </g>
            </g>
        </g>
    </g>
</svg>